<svg xmlns="http://www.w3.org/2000/svg" xmlns:xlink="http://www.w3.org/1999/xlink" version="1.1" x="0px" y="0px" viewBox="0 0 100 125" style="enable-background:new 0 0 100 100;" xml:space="preserve"><g><path d="M50,10c-22.1,0-40,17.9-40,40c0,22.1,17.9,40,40,40c22.1,0,40-17.9,40-40C90,27.9,72.1,10,50,10z    M73.7,43.2c0,1.4-1.2,2.6-2.6,2.6h-1.8v25.9c0,1.2-1,2.2-2.2,2.2H32.4c-1.2,0-2.2-1-2.2-2.2V45.8h-1.3c-1.4,0-2.6-1.2-2.6-2.6   v-6.4c0-1.4,1.2-2.6,2.6-2.6h11.5C40.2,33.5,40,32.7,40,32c0-3.4,2.7-6.1,6.1-6.1c1.4,0,2.6,0.4,3.6,1.2c1-0.7,2.3-1.2,3.6-1.2   c3.4,0,6.1,2.7,6.1,6.1c0,0.8-0.2,1.6-0.4,2.3h12c1.4,0,2.6,1.2,2.6,2.6V43.2z"/><rect x="34.7" y="45.8" width="12.9" height="7.4"/><rect x="34.7" y="57.7" width="12.9" height="11.8"/><path d="M53.4,33.1c0.6,0,1.1-0.5,1.1-1.1s-0.5-1.1-1.1-1.1c-0.6,0-1.1,0.5-1.1,1.1c0,0,0,0,0,0s0,0,0,0   C52.3,32.6,52.8,33.1,53.4,33.1z"/><circle cx="46.1" cy="31.9" r="1.1"/><rect x="52" y="57.7" width="12.9" height="11.8"/><rect x="31.5" y="39.4" width="37" height="1.3"/><rect x="52" y="45.8" width="12.9" height="7.4"/></g><text x="0" y="115" fill="#000000" font-size="5px" font-weight="bold" font-family="'Helvetica Neue', Helvetica, Arial-Unicode, Arial, Sans-serif">Created by ArashDesign</text><text x="0" y="120" fill="#000000" font-size="5px" font-weight="bold" font-family="'Helvetica Neue', Helvetica, Arial-Unicode, Arial, Sans-serif">from the Noun Project</text></svg>