<svg xmlns="http://www.w3.org/2000/svg" xmlns:xlink="http://www.w3.org/1999/xlink" version="1.1" x="0px" y="0px" viewBox="0 0 100 125" style="enable-background:new 0 0 100 100;" xml:space="preserve"><g><path d="M50,72.7c1.6,0,3-0.9,3.6-2.3h-7.3C47.1,71.7,48.5,72.7,50,72.7z"/><path d="M52.5,29.5c-0.1-0.6-0.3-1.1-0.7-1.5c-0.5-0.5-1.1-0.7-1.8-0.7c-1.3,0-2.3,1-2.5,2.2   c0.8-0.1,1.6-0.2,2.5-0.2S51.7,29.4,52.5,29.5z"/><path d="M62.4,46.7c0-6.8-5.5-12.4-12.4-12.4c-6.8,0-12.4,5.5-12.4,12.4v12.4h24.7V46.7z M44.4,54.9   c0,1.4-1.1,2.5-2.5,2.5s-2.5-1.1-2.5-2.5v-1.8c0-1.4,1.1-2.5,2.5-2.5s2.5,1.1,2.5,2.5V54.9z M52,41c-4,0-7.3,2.7-7.6,6.2   c-0.1,1.3-1.2,2.3-2.5,2.3c-0.1,0-0.2,0-0.2,0c-1.4-0.1-2.4-1.3-2.3-2.7C40,40.6,45.4,36,52,36c1.4,0,2.5,1.1,2.5,2.5   S53.4,41,52,41z"/><polygon points="36.4,64.1 35.4,65.3 64.6,65.3 63.6,64.1  "/><path d="M50,10c-22.1,0-40,17.9-40,40s17.9,40,40,40c22.1,0,40-17.9,40-40S72.1,10,50,10z M72.2,68   c0,0.1,0,0.2,0,0.3c0,0.1,0,0.2-0.1,0.2c0,0.1,0,0.2-0.1,0.2c0,0.1-0.1,0.2-0.1,0.2c0,0.1-0.1,0.1-0.1,0.2c0,0.1-0.1,0.1-0.1,0.2   c0,0.1-0.1,0.1-0.1,0.2c-0.1,0.1-0.1,0.1-0.2,0.2c0,0-0.1,0.1-0.1,0.1c0,0,0,0-0.1,0c-0.1,0-0.1,0.1-0.2,0.1   c-0.1,0-0.2,0.1-0.2,0.1c-0.1,0-0.1,0-0.2,0.1c-0.1,0-0.2,0.1-0.3,0.1c0,0-0.1,0-0.1,0c-0.2,0-0.3,0-0.5,0h0h0H58.9   c-0.8,4.2-4.5,7.3-8.9,7.3c-4.3,0-8.1-3.1-8.9-7.3H30.3h0h0c-0.2,0-0.3,0-0.5,0c0,0-0.1,0-0.1,0c-0.1,0-0.2-0.1-0.3-0.1   c-0.1,0-0.1,0-0.2-0.1c-0.1,0-0.2-0.1-0.2-0.1c-0.1,0-0.1-0.1-0.2-0.1c0,0,0,0-0.1,0c0,0-0.1-0.1-0.1-0.1c-0.1-0.1-0.1-0.1-0.2-0.2   c-0.1-0.1-0.1-0.1-0.2-0.2c0-0.1-0.1-0.1-0.1-0.2c0-0.1-0.1-0.1-0.1-0.2c0-0.1-0.1-0.1-0.1-0.2c0-0.1-0.1-0.2-0.1-0.2   c0-0.1,0-0.2-0.1-0.2c0-0.1,0-0.2,0-0.3c0-0.1,0-0.1,0-0.1c0,0,0,0,0-0.1c0-0.1,0-0.2,0-0.3c0-0.1,0-0.1,0-0.2c0-0.1,0-0.2,0.1-0.2   c0-0.1,0.1-0.2,0.1-0.2c0-0.1,0.1-0.1,0.1-0.2c0-0.1,0.1-0.2,0.1-0.2c0,0,0,0,0-0.1l4.3-5.6v-14c0-6.9,4.1-12.8,9.9-15.6   c0-0.1,0-0.2,0-0.3v-0.9c0-4.1,3.4-7.5,7.5-7.5c2,0,3.9,0.8,5.3,2.2c1.4,1.4,2.2,3.3,2.2,5.3v0.9c0,0.1,0,0.2,0,0.3   c5.8,2.8,9.9,8.8,9.9,15.6v14l4.3,5.6c0,0,0,0,0,0.1c0.1,0.1,0.1,0.1,0.1,0.2c0,0.1,0.1,0.1,0.1,0.2c0,0.1,0.1,0.2,0.1,0.2   c0,0.1,0.1,0.2,0.1,0.2c0,0.1,0,0.1,0,0.2c0,0.1,0,0.2,0,0.3c0,0,0,0,0,0.1C72.2,67.9,72.2,67.9,72.2,68z"/></g><text x="0" y="115" fill="#000000" font-size="5px" font-weight="bold" font-family="'Helvetica Neue', Helvetica, Arial-Unicode, Arial, Sans-serif">Created by ArashDesign</text><text x="0" y="120" fill="#000000" font-size="5px" font-weight="bold" font-family="'Helvetica Neue', Helvetica, Arial-Unicode, Arial, Sans-serif">from the Noun Project</text></svg>