<svg xmlns="http://www.w3.org/2000/svg" xmlns:xlink="http://www.w3.org/1999/xlink" version="1.1" x="0px" y="0px" viewBox="0 0 100 125" style="enable-background:new 0 0 100 100;" xml:space="preserve"><g><path d="M52.2,56.2l4.3-4.6c0.8-0.9,2.2-0.9,3.1-0.1c0.9,0.8,0.9,2.2,0.1,3.1l-8.2,8.7c0,0,0,0,0,0   c0,0,0,0-0.1,0.1c0,0,0,0,0,0c0,0-0.1,0.1-0.1,0.1c0,0,0,0,0,0c0,0-0.1,0.1-0.1,0.1c0,0,0,0,0,0c-0.1,0-0.1,0.1-0.2,0.1   c0,0-0.1,0-0.1,0c0,0,0,0-0.1,0c0,0,0,0,0,0c-0.1,0-0.2,0.1-0.3,0.1c0,0-0.1,0-0.1,0c0,0,0,0,0,0c-0.1,0-0.3,0-0.4,0h0l0,0l0,0h0   c-0.1,0-0.3,0-0.4,0c0,0,0,0,0,0c0,0-0.1,0-0.1,0c-0.1,0-0.2,0-0.3-0.1c0,0,0,0,0,0c0,0,0,0-0.1,0c0,0-0.1,0-0.1,0   c-0.1,0-0.1-0.1-0.2-0.1c0,0,0,0,0,0c0,0-0.1-0.1-0.1-0.1c0,0,0,0,0,0c0,0-0.1-0.1-0.1-0.1c0,0,0,0,0,0c0,0,0,0-0.1-0.1   c0,0,0,0,0,0l-8.2-8.7c-0.8-0.9-0.8-2.3,0.1-3.1c0.9-0.8,2.3-0.8,3.1,0.1l4.3,4.6V41.8H34.5v30.9h30.9V41.8H52.2V56.2z"/><path d="M50,10c-22.1,0-40,17.9-40,40c0,22.1,17.9,40,40,40s40-17.9,40-40C90,27.9,72.1,10,50,10z M69.9,75   c0,1.2-1,2.2-2.2,2.2H32.3c-1.2,0-2.2-1-2.2-2.2V39.6c0-1.2,1-2.2,2.2-2.2h15.5V29c0-1.2,1-2.2,2.2-2.2s2.2,1,2.2,2.2v8.4h15.5   c1.2,0,2.2,1,2.2,2.2V75z"/></g><text x="0" y="115" fill="#000000" font-size="5px" font-weight="bold" font-family="'Helvetica Neue', Helvetica, Arial-Unicode, Arial, Sans-serif">Created by ArashDesign</text><text x="0" y="120" fill="#000000" font-size="5px" font-weight="bold" font-family="'Helvetica Neue', Helvetica, Arial-Unicode, Arial, Sans-serif">from the Noun Project</text></svg>