<svg xmlns="http://www.w3.org/2000/svg" xmlns:xlink="http://www.w3.org/1999/xlink" version="1.1" x="0px" y="0px" viewBox="0 0 100 125" style="enable-background:new 0 0 100 100;" xml:space="preserve"><g><path d="M45.8,31c-8.4,0-15.3,6.9-15.3,15.3s6.9,15.3,15.3,15.3s15.3-6.9,15.3-15.3S54.2,31,45.8,31z M45.6,34.2   c0.5-1.3,1.9-2,3.2-1.5c0.4,0.1,1.3,0.5,1.8,1.4c0.6,0.8,0.7,2,0.1,2.8c-0.5,0.7-1.3,1.1-2.1,1.1c-0.5,0-0.9-0.1-1.4-0.4   c-0.3-0.2-0.5-0.4-0.7-0.6C45.6,36.4,45.2,35.3,45.6,34.2z M33.7,52.5c-0.3-0.3-0.7-0.8-0.8-1.5c-0.5-1.2,0-2.6,1.2-3.2   c1.2-0.6,2.7-0.2,3.4,1c0.1,0.2,0.2,0.4,0.3,0.6c0.7,1,0.6,2.5-0.4,3.4c-0.5,0.4-1,0.6-1.6,0.6C34.9,53.3,34.2,53,33.7,52.5z    M59.3,45.3c0,8-6.5,14.5-14.5,14.5c-2.4,0-4.7-0.6-6.8-1.7c-1.2-0.6-1.7-2.2-1-3.4c0.6-1.2,2.2-1.7,3.4-1c1.4,0.7,2.9,1.1,4.5,1.1   c5.2,0,9.5-4.3,9.5-9.5c0-1.9-0.6-3.8-1.7-5.4c-0.8-1.1-0.5-2.7,0.6-3.5c1.1-0.8,2.7-0.5,3.5,0.6C58.4,39.5,59.3,42.4,59.3,45.3z"/><path d="M50,10c-22.1,0-40,17.9-40,40s17.9,40,40,40s40-17.9,40-40S72.1,10,50,10z M73.8,73.2   C73.3,73.7,72.7,74,72,74s-1.3-0.2-1.8-0.7L58.9,61.8c-3.5,3-8.1,4.8-13.1,4.8c-11.2,0-20.3-9.1-20.3-20.3   c0-11.2,9.1-20.3,20.3-20.3c11.2,0,20.3,9.1,20.3,20.3c0,4.4-1.4,8.5-3.8,11.8l11.5,11.5C74.8,70.7,74.8,72.2,73.8,73.2z"/></g><text x="0" y="115" fill="#000000" font-size="5px" font-weight="bold" font-family="'Helvetica Neue', Helvetica, Arial-Unicode, Arial, Sans-serif">Created by ArashDesign</text><text x="0" y="120" fill="#000000" font-size="5px" font-weight="bold" font-family="'Helvetica Neue', Helvetica, Arial-Unicode, Arial, Sans-serif">from the Noun Project</text></svg>