<svg xmlns="http://www.w3.org/2000/svg" xmlns:xlink="http://www.w3.org/1999/xlink" version="1.1" x="0px" y="0px" viewBox="0 0 100 125" style="enable-background:new 0 0 100 100;" xml:space="preserve"><g><polygon points="47.9,70.4 52.2,70.4 52.2,60.2 47.9,60.2  "/><path d="M65.6,45C65.6,45,65.6,45,65.6,45C65.6,45,65.6,45,65.6,45L49.9,30.5L33.2,46.2c0.6,0.1,1.1,0.5,1.5,1   c0,0,0,0,0,0c0.1,0.1,0.1,0.2,0.2,0.4c0,0,0,0.1,0,0.1c0,0.1,0.1,0.2,0.1,0.4c0,0,0,0.1,0,0.1c0,0.2,0,0.3,0.1,0.5l0,0v0l0.1,20.9   c0,0.5,0.4,0.8,0.8,0.8c0,0,0,0,0,0l6.9,0V57.7c0-1.4,1.1-2.5,2.5-2.5h9.3c1.4,0,2.5,1.1,2.5,2.5v12.7l6.9,0c0.3,0,0.5-0.2,0.6-0.2   c0.1-0.1,0.2-0.3,0.2-0.6l-0.1-20.9v0c0,0,0,0,0,0c0-0.2,0-0.3,0-0.5c0,0,0-0.1,0-0.1c0-0.1,0.1-0.2,0.1-0.3c0-0.1,0-0.1,0.1-0.2   c0-0.1,0.1-0.2,0.1-0.3c0,0,0.1-0.1,0.1-0.1c0.1-0.1,0.1-0.1,0.2-0.2c0,0,0.1-0.1,0.1-0.1c0.1-0.1,0.2-0.1,0.2-0.2   c0,0,0.1-0.1,0.1-0.1c0.1-0.1,0.3-0.2,0.4-0.2c0,0,0,0,0,0c0.1-0.1,0.3-0.1,0.4-0.1L65.6,45C65.7,45.1,65.7,45,65.6,45z M52.9,48.2   h-5.8c-1.4,0-2.5-1.1-2.5-2.5s1.1-2.5,2.5-2.5h5.8c1.4,0,2.5,1.1,2.5,2.5S54.3,48.2,52.9,48.2z"/><path d="M50,10c-22.1,0-40,17.9-40,40s17.9,40,40,40c22.1,0,40-17.9,40-40S72.1,10,50,10z M75.5,49.5   c-0.4,1-1.3,1.6-2.3,1.6l-3.2,0l0,18.4c0,1.6-0.6,3-1.7,4.1c-1.1,1.1-2.6,1.7-4.1,1.7l-8.9,0c-0.2,0-0.3,0.1-0.5,0.1h-9.3   c-0.1,0-0.2,0-0.3,0l-9.1,0c0,0,0,0,0,0c-3.2,0-5.8-2.6-5.8-5.8l0-18.4l-3.2,0c0,0,0,0,0,0c-1,0-1.9-0.6-2.3-1.6   c-0.4-1-0.1-2,0.6-2.7l23.1-21.6c1-0.9,2.4-0.9,3.4,0l17.5,16.2c0,0,0,0,0.1,0.1c0,0,0,0,0,0c0,0,0,0,0,0l5.6,5.2   C75.6,47.4,75.8,48.5,75.5,49.5z"/></g><text x="0" y="115" fill="#000000" font-size="5px" font-weight="bold" font-family="'Helvetica Neue', Helvetica, Arial-Unicode, Arial, Sans-serif">Created by ArashDesign</text><text x="0" y="120" fill="#000000" font-size="5px" font-weight="bold" font-family="'Helvetica Neue', Helvetica, Arial-Unicode, Arial, Sans-serif">from the Noun Project</text></svg>