<svg xmlns="http://www.w3.org/2000/svg" xmlns:xlink="http://www.w3.org/1999/xlink" version="1.1" x="0px" y="0px" viewBox="0 0 100 125" style="enable-background:new 0 0 100 100;" xml:space="preserve"><path d="M50,10c-22.1,0-40,17.9-40,40c0,22.1,17.9,40,40,40c22.1,0,40-17.9,40-40C90,27.9,72.1,10,50,10z   M54.1,71.4h-20c-1.4,0-2.5-1.1-2.5-2.5V31.1c0-1.4,1.1-2.5,2.5-2.5h20c1.4,0,2.5,1.1,2.5,2.5s-1.1,2.5-2.5,2.5H36.6v32.9h17.5  c1.4,0,2.5,1.1,2.5,2.5S55.5,71.4,54.1,71.4z M68.4,50c0,0.1,0,0.1,0,0.2c0,0.1,0,0.2,0,0.2c0,0,0,0,0,0c0,0.1,0,0.1-0.1,0.2  c0,0.1,0,0.1-0.1,0.2c0,0,0,0,0,0c0,0.1-0.1,0.1-0.1,0.2c0,0,0,0,0,0c0,0.1-0.1,0.1-0.1,0.2c0,0,0,0,0,0c0,0-0.1,0.1-0.1,0.1  c0,0,0,0.1-0.1,0.1c0,0-0.1,0.1-0.1,0.1l-5.9,6.1c-0.5,0.5-1.1,0.8-1.8,0.8c-0.6,0-1.3-0.2-1.7-0.7c-1-1-1-2.5-0.1-3.5l1.8-1.9H43.1  c-1.4,0-2.5-1.1-2.5-2.5s1.1-2.5,2.5-2.5H60l-1.8-1.9c-1-1-0.9-2.6,0.1-3.5c1-1,2.6-0.9,3.5,0.1l5.9,6.1c0,0,0.1,0.1,0.1,0.1  c0,0,0,0.1,0.1,0.1c0,0,0.1,0.1,0.1,0.1c0,0,0,0,0,0c0,0.1,0.1,0.1,0.1,0.2c0,0,0,0,0,0c0,0.1,0.1,0.1,0.1,0.2c0,0,0,0,0,0  c0,0.1,0,0.1,0.1,0.2c0,0.1,0,0.1,0.1,0.2c0,0,0,0,0,0c0,0.1,0,0.2,0,0.2C68.4,49.8,68.4,49.9,68.4,50C68.4,50,68.4,50,68.4,50  C68.4,50,68.4,50,68.4,50z"/><text x="0" y="115" fill="#000000" font-size="5px" font-weight="bold" font-family="'Helvetica Neue', Helvetica, Arial-Unicode, Arial, Sans-serif">Created by ArashDesign</text><text x="0" y="120" fill="#000000" font-size="5px" font-weight="bold" font-family="'Helvetica Neue', Helvetica, Arial-Unicode, Arial, Sans-serif">from the Noun Project</text></svg>