<svg xmlns="http://www.w3.org/2000/svg" xmlns:xlink="http://www.w3.org/1999/xlink" version="1.1" x="0px" y="0px" viewBox="0 0 100 125" style="enable-background:new 0 0 100 100;" xml:space="preserve"><g><polygon points="63.7,40 49.8,35 35.8,40 49.8,45  "/><path d="M50,10c-22.1,0-40,17.9-40,40c0,22.1,17.9,40,40,40s40-17.9,40-40C90,27.9,72.1,10,50,10z M28.4,37.9   L49,30.5c0.5-0.2,1-0.2,1.5,0l20.6,7.4c0.9,0.3,1.5,1.2,1.5,2.1s-0.6,1.8-1.5,2.1l-20.6,7.4c-0.2,0.1-0.5,0.1-0.7,0.1   s-0.5,0-0.7-0.1l-20.6-7.4C27.6,41.8,27,40.9,27,40S27.6,38.2,28.4,37.9z M71.6,62.1L51,69.5c-0.2,0.1-0.5,0.1-0.7,0.1   s-0.5,0-0.7-0.1l-20.6-7.4c-1.2-0.4-1.8-1.7-1.3-2.8c0.4-1.2,1.7-1.8,2.8-1.3L50.2,65l19.8-7.1c1.2-0.4,2.4,0.2,2.8,1.3   C73.3,60.4,72.7,61.7,71.6,62.1z M71.6,55.2L51,62.6c-0.2,0.1-0.5,0.1-0.7,0.1s-0.5,0-0.7-0.1l-20.6-7.4c-1.2-0.4-1.8-1.7-1.3-2.8   s1.7-1.8,2.8-1.3l19.8,7.1L70.1,51c1.2-0.4,2.4,0.2,2.8,1.3S72.7,54.8,71.6,55.2z M71.6,48.7L51,56c-0.2,0.1-0.5,0.1-0.7,0.1   s-0.5,0-0.7-0.1l-20.6-7.4c-1.2-0.4-1.8-1.7-1.3-2.8c0.4-1.2,1.7-1.8,2.8-1.3l19.8,7.1l19.8-7.1c1.2-0.4,2.4,0.2,2.8,1.3   C73.3,47,72.7,48.2,71.6,48.7z"/></g><text x="0" y="115" fill="#000000" font-size="5px" font-weight="bold" font-family="'Helvetica Neue', Helvetica, Arial-Unicode, Arial, Sans-serif">Created by ArashDesign</text><text x="0" y="120" fill="#000000" font-size="5px" font-weight="bold" font-family="'Helvetica Neue', Helvetica, Arial-Unicode, Arial, Sans-serif">from the Noun Project</text></svg>