<svg xmlns="http://www.w3.org/2000/svg" xmlns:xlink="http://www.w3.org/1999/xlink" version="1.1" x="0px" y="0px" viewBox="0 0 100 125" style="enable-background:new 0 0 100 100;" xml:space="preserve"><g><path d="M66.9,44.4C66.8,44.4,66.8,44.4,66.9,44.4C66.8,44.4,66.8,44.4,66.9,44.4L49.9,28.8L31.2,46.4l0.4,0   c0,0,0,0,0,0c0,0,0,0,0,0c0.2,0,0.5,0,0.7,0.1c0.1,0,0.1,0,0.2,0.1c0.3,0.1,0.5,0.3,0.7,0.5c0,0,0,0,0,0c0.1,0.1,0.1,0.1,0.1,0.2   c0,0.1,0.1,0.1,0.1,0.2c0,0,0,0.1,0,0.1c0.1,0.1,0.1,0.2,0.2,0.3c0,0,0,0.1,0,0.1c0,0.1,0.1,0.2,0.1,0.3c0,0.1,0,0.1,0,0.2   c0,0.1,0,0.1,0,0.2v0v0l0.1,22.1c0,0.3,0.1,0.7,0.4,0.9c0.2,0.2,0.6,0.4,0.9,0.4c0,0,0,0,0,0l7.7,0V58.2c0-1.2,1-2.2,2.2-2.2H55   c1.2,0,2.2,1,2.2,2.2V72l7.8,0c0.7,0,1.3-0.6,1.3-1.3l-0.1-22.1v0c0-0.1,0-0.1,0-0.2c0-0.1,0-0.2,0-0.2c0-0.1,0.1-0.2,0.1-0.3   c0,0,0-0.1,0-0.1c0.3-0.8,1.1-1.3,1.9-1.4c0,0,0.1,0,0.1,0l0.4,0L66.9,44.4C66.9,44.5,66.9,44.5,66.9,44.4z"/><polygon points="47.3,72 52.7,72 52.7,60.4 47.3,60.4  "/><path d="M50,10c-22.1,0-40,17.9-40,40c0,22.1,17.9,40,40,40s40-17.9,40-40C90,27.9,72.1,10,50,10z M76.6,49.3   c-0.3,0.9-1.2,1.4-2.1,1.4l-3.8,0l0.1,19.9c0,3.2-2.6,5.8-5.7,5.8l-9.5,0c-0.2,0-0.3,0.1-0.5,0.1h-9.9c-0.1,0-0.2,0-0.3,0l-9.6,0   c0,0,0,0,0,0c-1.5,0-3-0.6-4.1-1.7c-1.1-1.1-1.7-2.5-1.7-4.1l-0.1-19.9l-3.8,0c0,0,0,0,0,0c-0.9,0-1.7-0.6-2.1-1.4   c-0.3-0.9-0.1-1.8,0.5-2.4l24.4-22.9c0.9-0.8,2.2-0.8,3,0l18.5,17.1c0,0,0,0,0.1,0.1c0,0,0,0,0,0c0,0,0,0,0,0l6,5.5   C76.7,47.5,76.9,48.4,76.6,49.3z"/></g><text x="0" y="115" fill="#000000" font-size="5px" font-weight="bold" font-family="'Helvetica Neue', Helvetica, Arial-Unicode, Arial, Sans-serif">Created by ArashDesign</text><text x="0" y="120" fill="#000000" font-size="5px" font-weight="bold" font-family="'Helvetica Neue', Helvetica, Arial-Unicode, Arial, Sans-serif">from the Noun Project</text></svg>