<svg xmlns="http://www.w3.org/2000/svg" xmlns:xlink="http://www.w3.org/1999/xlink" version="1.1" x="0px" y="0px" viewBox="0 0 512 640" enable-background="new 0 0 512 512" xml:space="preserve"><g><path d="M256,205.2c-28,0-50.8,22.8-50.8,50.8c0,28,22.8,50.8,50.8,50.8s50.8-22.8,50.8-50.8C306.8,228,284,205.2,256,205.2z"/><path d="M2,256c140.3,203.2,367.7,203.2,508,0C369.7,52.8,142.3,52.8,2,256z M256,357.6c-56,0-101.6-45.6-101.6-101.6   c0-56,45.6-101.6,101.6-101.6S357.6,200,357.6,256C357.6,312,312,357.6,256,357.6z"/></g><text x="0" y="527" fill="#000000" font-size="5px" font-weight="bold" font-family="'Helvetica Neue', Helvetica, Arial-Unicode, Arial, Sans-serif">Created by ProSymbols</text><text x="0" y="532" fill="#000000" font-size="5px" font-weight="bold" font-family="'Helvetica Neue', Helvetica, Arial-Unicode, Arial, Sans-serif">from the Noun Project</text></svg>