<?xml version="1.0" encoding="UTF-8" standalone="no"?>


<svg
   version="1.1"
   viewBox="0 0 78 77.999999"
   id="svg31"
   sodipodi:docname="noun_profile_1041818.svg"
   width="78"
   height="78"
   inkscape:version="1.1 (c68e22c387, 2021-05-23)"
   xmlns:inkscape="http://www.inkscape.org/namespaces/inkscape"
   xmlns:sodipodi="http://sodipodi.sourceforge.net/DTD/sodipodi-0.dtd"
   xmlns="http://www.w3.org/2000/svg"
   xmlns:svg="http://www.w3.org/2000/svg"><defs
     id="defs35" /><sodipodi:namedview
     id="namedview33"
     pagecolor="#ffffff"
     bordercolor="#666666"
     borderopacity="1.0"
     inkscape:pageshadow="2"
     inkscape:pageopacity="0.0"
     inkscape:pagecheckerboard="0"
     showgrid="false"
     width="61px"
     inkscape:zoom="6.525"
     inkscape:cx="52.796935"
     inkscape:cy="45.59387"
     inkscape:window-width="1920"
     inkscape:window-height="1001"
     inkscape:window-x="-9"
     inkscape:window-y="-9"
     inkscape:window-maximized="1"
     inkscape:current-layer="svg31" /><g
     id="g29"
     clip-path="none"
     transform="translate(-9,-9)"
     style="opacity:1"><g
       id="g27"><circle
         cx="48"
         cy="33.799999"
         r="8.8000002"
         id="circle23" /><path
         d="M 48,9 C 26.5,9 9,26.5 9,48 9,69.5 26.5,87 48,87 69.5,87 87,69.5 87,48 87,26.5 69.5,9 48,9 Z m 0,12 c 7,0 12.8,5.7 12.8,12.8 C 60.8,40.9 55,46.5 48,46.5 41,46.5 35.2,40.8 35.2,33.7 35.2,26.6 41,21 48,21 Z M 66.8,73 C 66.8,62.4 58,53.1 48,53.1 38,53.1 29.2,62.4 29.2,73 h -4 C 25.2,60 35.7,49.1 48,49.1 60.3,49.1 70.8,60 70.8,73 Z"
         id="path25" /></g></g></svg>
