<svg xmlns="http://www.w3.org/2000/svg" xmlns:xlink="http://www.w3.org/1999/xlink" version="1.1" x="0px" y="0px" viewBox="0 0 100 125" style="enable-background:new 0 0 100 100;" xml:space="preserve"><g><path d="M45.8,31c-8.4,0-15.3,6.9-15.3,15.3s6.9,15.3,15.3,15.3s15.3-6.9,15.3-15.3S54.2,31,45.8,31z"/><path d="M50,10c-22.1,0-40,17.9-40,40s17.9,40,40,40s40-17.9,40-40S72.1,10,50,10z M73.8,73.2   C73.3,73.7,72.7,74,72,74s-1.3-0.2-1.8-0.7L58.9,61.8c-3.5,3-8.1,4.8-13.1,4.8c-11.2,0-20.3-9.1-20.3-20.3   c0-11.2,9.1-20.3,20.3-20.3s20.3,9.1,20.3,20.3c0,4.4-1.4,8.5-3.8,11.8l11.5,11.5C74.8,70.7,74.8,72.2,73.8,73.2z"/></g><text x="0" y="115" fill="#000000" font-size="5px" font-weight="bold" font-family="'Helvetica Neue', Helvetica, Arial-Unicode, Arial, Sans-serif">Created by ArashDesign</text><text x="0" y="120" fill="#000000" font-size="5px" font-weight="bold" font-family="'Helvetica Neue', Helvetica, Arial-Unicode, Arial, Sans-serif">from the Noun Project</text></svg>