<svg xmlns="http://www.w3.org/2000/svg" xmlns:xlink="http://www.w3.org/1999/xlink" version="1.1" x="0px" y="0px" viewBox="0 0 100 125" style="enable-background:new 0 0 100 100;" xml:space="preserve"><g><path d="M44.3,69l14.6-16.8L79,76.7c1.2,1.5,3.7,0.3,3.2-1.6l-3.3-12.7l5.9-7.3c0.7-0.9,0.8-2.1,0-3   c-0.9-1.1-2.6-1-3.4,0.1l-3.9,4.9l-1.2-4.7l4.3-5.4c0.7-0.9,0.8-2.1,0-3c-0.9-1.1-2.6-1-3.4,0.1L74.8,47l-2.6-10l10.8-12.4   c1.5-1.9,3.6-6,3.4-8.3C86,14.1,84.9,12,83,10.5c-3.8-3-10.8-0.7-13.8,3.1l-9.8,13.2l-10.3-0.4l2.3-2.8c0.7-0.9,0.8-2.1,0-3   c-0.9-1.1-2.6-1-3.4,0.1l-4.4,5.5l-4.9-0.2l3.8-4.8c0.7-0.9,0.8-2.1,0-3c-0.9-1.1-2.6-1-3.4,0.1l-6,7.4l-13.1-0.6   c-2-0.1-2.7,2.6-0.9,3.5l28.2,14.4L34.1,60.8l0,0l-19.2,7.4c-1.7,0.7-1.5,3.1,0.3,3.5l15.7,3.5l6.8,14.6c0.8,1.6,3.2,1.3,3.5-0.5   L44.3,69L44.3,69z"/></g><text x="0" y="115" fill="#000000" font-size="5px" font-weight="bold" font-family="'Helvetica Neue', Helvetica, Arial-Unicode, Arial, Sans-serif">Created by ArashDesign</text><text x="0" y="120" fill="#000000" font-size="5px" font-weight="bold" font-family="'Helvetica Neue', Helvetica, Arial-Unicode, Arial, Sans-serif">from the Noun Project</text></svg>