<svg xmlns="http://www.w3.org/2000/svg" xmlns:xlink="http://www.w3.org/1999/xlink" version="1.1" x="0px" y="0px" viewBox="0 0 100 125" style="enable-background:new 0 0 100 100;" xml:space="preserve"><g><path d="M83.6,26.1h-1.5V13.5c0-4.5-3.7-8.2-8.2-8.2H26c-4.5,0-8.2,3.7-8.2,8.2v12.6h-1.5c-3.2,0-5.8,2.6-5.8,5.8v8.3   c0,3.2,2.6,5.8,5.8,5.8h1.5v29.2c0,3.6,2.5,6.6,5.9,7.4v6.8c0,2.9,2.3,5.2,5.2,5.2h7.4c2.9,0,5.2-2.3,5.2-5.2v-6.6h16.9v6.6   c0,2.9,2.3,5.2,5.2,5.2h7.4c2.9,0,5.2-2.3,5.2-5.2v-6.8c3.4-0.8,5.9-3.8,5.9-7.4V46.1h1.5c3.2,0,5.8-2.6,5.8-5.8V32   C89.5,28.8,86.8,26.1,83.6,26.1z M38.6,69.4H26.7v-6.2l11.9,1V69.4z M74.3,69.4H62.3v-5.2l11.9-1V69.4z M76.3,55.2c0,1.1-0.9,2-2,2   H25.8c-1.1,0-2-0.9-2-2v-4.9h52.5V55.2z M76.3,46.3H23.8V18.3c0-3.9,3.2-7.1,7.1-7.1h38.3c3.9,0,7.1,3.2,7.1,7.1V46.3z"/></g><text x="0" y="115" fill="#000000" font-size="5px" font-weight="bold" font-family="'Helvetica Neue', Helvetica, Arial-Unicode, Arial, Sans-serif">Created by ArashDesign</text><text x="0" y="120" fill="#000000" font-size="5px" font-weight="bold" font-family="'Helvetica Neue', Helvetica, Arial-Unicode, Arial, Sans-serif">from the Noun Project</text></svg>