<svg xmlns="http://www.w3.org/2000/svg" xmlns:xlink="http://www.w3.org/1999/xlink" version="1.1" x="0px" y="0px" viewBox="0 0 100 125" style="enable-background:new 0 0 100 100;" xml:space="preserve"><g><path d="M60.7,34.1c-3,0-5.8,1.7-7.1,4.3c-0.1,0.2-0.2,0.4-0.2,0.5c0,0.1-0.1,0.1-0.1,0.2c0,0,0,0,0,0.1l-1,1.8   c-0.4,0.8-1.3,1.2-2.2,1.2s-1.7-0.5-2.2-1.2l-1-1.8c0,0,0,0,0,0c-0.1-0.1-0.1-0.2-0.2-0.3c-0.1-0.1-0.1-0.3-0.2-0.4   c-1.4-2.7-4.1-4.4-7.2-4.4c-4.4,0-8,3.6-8,8c0,1.9,0.6,3.7,1.8,5.1v0c0,0,0,0,0,0l0.9,0.9c0,0,0.1,0.1,0.1,0.1l16.1,16.5L66,48.2   c0,0,0,0,0,0l0.9-0.9c1.2-1.5,1.8-3.2,1.8-5.1C68.7,37.7,65.1,34.1,60.7,34.1z"/><path d="M50,10c-22.1,0-40,17.9-40,40c0,22.1,17.9,40,40,40s40-17.9,40-40C90,27.9,72.1,10,50,10z M70.8,50.4   c-0.1,0.1-0.2,0.2-0.3,0.3c0,0,0,0,0,0l-0.9,0.9c0,0-0.1,0.1-0.1,0.1L52,70.1c-0.5,0.5-1.1,0.8-1.8,0.8c0,0,0,0,0,0   c-0.7,0-1.3-0.3-1.8-0.8L30.6,51.9c0,0-0.1-0.1-0.1-0.1l-1-1.1c0,0,0,0,0-0.1c0-0.1-0.1-0.1-0.1-0.2c0,0,0,0,0,0   c-1.9-2.3-3-5.3-3-8.3c0-7.2,5.8-13,13-13c4.3,0,8.3,2.1,10.7,5.6c2.4-3.5,6.4-5.6,10.7-5.6c7.2,0,13,5.8,13,13   C73.7,45.2,72.7,48.1,70.8,50.4z"/></g><text x="0" y="115" fill="#000000" font-size="5px" font-weight="bold" font-family="'Helvetica Neue', Helvetica, Arial-Unicode, Arial, Sans-serif">Created by ArashDesign</text><text x="0" y="120" fill="#000000" font-size="5px" font-weight="bold" font-family="'Helvetica Neue', Helvetica, Arial-Unicode, Arial, Sans-serif">from the Noun Project</text></svg>