<svg xmlns="http://www.w3.org/2000/svg" xmlns:xlink="http://www.w3.org/1999/xlink" version="1.1" x="0px" y="0px" viewBox="0 0 100 125" style="enable-background:new 0 0 100 100;" xml:space="preserve"><g><path d="M50,34.2c-4.2,0-7.7,3.4-7.7,7.7s3.4,7.7,7.7,7.7s7.7-3.4,7.7-7.7S54.2,34.2,50,34.2z"/><path d="M50,10.8c-22.1,0-40,17.9-40,40c0,22.1,17.9,40,40,40s40-17.9,40-40C90,28.7,72.1,10.8,50,10.8z    M26.3,45.3v-2h-2c-1.4,0-2.5-1.1-2.5-2.5s1.1-2.5,2.5-2.5h2v-2c0-1.4,1.1-2.5,2.5-2.5s2.5,1.1,2.5,2.5v2h2c1.4,0,2.5,1.1,2.5,2.5   s-1.1,2.5-2.5,2.5h-2v2c0,1.4-1.1,2.5-2.5,2.5S26.3,46.7,26.3,45.3z M67.5,71.7c-1.2,0-2.2-1-2.2-2.2c0-8.4-6.9-15.3-15.3-15.3   c-8.4,0-15.3,6.9-15.3,15.3c0,1.2-1,2.2-2.2,2.2s-2.2-1-2.2-2.2c0-8.2,5-15.2,12.1-18.2c-2.8-2.2-4.5-5.6-4.5-9.4   c0-6.7,5.4-12.1,12.1-12.1s12.1,5.4,12.1,12.1c0,3.8-1.8,7.2-4.5,9.4c7.1,3,12.1,10,12.1,18.2C69.7,70.7,68.7,71.7,67.5,71.7z"/></g><text x="0" y="115" fill="#000000" font-size="5px" font-weight="bold" font-family="'Helvetica Neue', Helvetica, Arial-Unicode, Arial, Sans-serif">Created by ArashDesign</text><text x="0" y="120" fill="#000000" font-size="5px" font-weight="bold" font-family="'Helvetica Neue', Helvetica, Arial-Unicode, Arial, Sans-serif">from the Noun Project</text></svg>