<svg xmlns="http://www.w3.org/2000/svg" xmlns:xlink="http://www.w3.org/1999/xlink" version="1.1" x="0px" y="0px" viewBox="0 0 100 125" style="enable-background:new 0 0 100 100;" xml:space="preserve"><g><path d="M62.5,5.5h-25c-13.2,0-24,10.7-24,24v39.2c0,5.4,4.4,9.9,9.9,9.9h8.4l-4.4,4.4c0,0,0,0,0,0l-5.7,5.7   c-1.4,1.4-1.4,3.6,0,4.9c0.7,0.7,1.6,1,2.5,1s1.8-0.3,2.5-1l4.6-4.6h37.4l4.6,4.6c0.7,0.7,1.6,1,2.5,1s1.8-0.3,2.5-1   c1.4-1.4,1.4-3.6,0-4.9l-10-10h8.4c5.4,0,9.9-4.4,9.9-9.9V29.5C86.5,16.2,75.8,5.5,62.5,5.5z M36.5,17.4c0-1.6,1.3-3,3-3h20   c1.6,0,3,1.3,3,3v1.1c0,1.6-1.3,3-3,3h-20c-1.6,0-3-1.3-3-3V17.4z M21.6,42.6V31.9c0-1.1,0.9-1.9,1.9-1.9h22.1   c1.1,0,1.9,0.9,1.9,1.9v10.7c0,1.1-0.9,1.9-1.9,1.9H23.5C22.4,44.5,21.6,43.6,21.6,42.6z M27.8,72.9c-1.9,0-3.5-1.6-3.5-3.5   c0-1.9,1.6-3.5,3.5-3.5c1.9,0,3.5,1.6,3.5,3.5C31.4,71.3,29.8,72.9,27.8,72.9z M58.8,78.9l2.9,2.9H38.3l2.9-2.9   c0.1-0.1,0.3-0.3,0.4-0.5h16.8C58.5,78.7,58.7,78.8,58.8,78.9z M72.2,72.9c-1.9,0-3.5-1.6-3.5-3.5c0-1.9,1.6-3.5,3.5-3.5   c1.9,0,3.5,1.6,3.5,3.5C75.7,71.3,74.1,72.9,72.2,72.9z M78.4,42.6c0,1.1-0.9,1.9-1.9,1.9H54.4c-1.1,0-1.9-0.9-1.9-1.9V31.9   c0-1.1,0.9-1.9,1.9-1.9h22.1c1.1,0,1.9,0.9,1.9,1.9V42.6z"/></g><text x="0" y="115" fill="#000000" font-size="5px" font-weight="bold" font-family="'Helvetica Neue', Helvetica, Arial-Unicode, Arial, Sans-serif">Created by ArashDesign</text><text x="0" y="120" fill="#000000" font-size="5px" font-weight="bold" font-family="'Helvetica Neue', Helvetica, Arial-Unicode, Arial, Sans-serif">from the Noun Project</text></svg>