<svg width="50" height="36" viewBox="0 0 50 36" fill="none" xmlns="http://www.w3.org/2000/svg">
<path d="M3.65854 0C2.93939 0 2.27933 0.240924 1.71494 0.6375L23.3613 21.0588C24.3522 21.9947 25.6877 21.9945 26.6768 21.0588L48.2851 0.6375C47.7207 0.240924 47.0606 0 46.3415 0H3.65854ZM0.209634 2.74121C0.0791461 3.16145 0 3.6091 0 4.08V31.28C0 32.0993 0.220792 32.8522 0.590731 33.49L16.0823 17.7438L0.209634 2.74121ZM49.7904 2.74121L33.9558 17.7225L49.4093 33.49C49.7792 32.8522 50 32.0993 50 31.28V4.08C50 3.6091 49.9209 3.16145 49.7904 2.74121ZM32.0884 19.5075L28.2393 23.1412C26.3777 24.9025 23.6416 24.9 21.7798 23.1412L17.9497 19.5288L2.57244 35.1688C2.91652 35.2876 3.27854 35.36 3.65854 35.36H46.3415C46.7215 35.36 47.0835 35.2876 47.4276 35.1688L32.0884 19.5075Z" fill="black"/>
</svg>
