<svg width="52" height="52" viewBox="0 0 52 52" fill="none" xmlns="http://www.w3.org/2000/svg">
<path d="M36.985 22.36L25.935 12.22L13.78 23.66H14.04C14.17 23.66 14.365 23.66 14.495 23.725C14.56 23.725 14.56 23.725 14.625 23.79C14.82 23.855 14.95 23.985 15.08 24.115C15.145 24.18 15.145 24.18 15.145 24.245C15.145 24.31 15.21 24.31 15.21 24.375V24.44C15.275 24.505 15.275 24.57 15.34 24.635V24.7C15.34 24.765 15.405 24.83 15.405 24.895C15.405 24.96 15.405 24.96 15.405 25.025C15.405 25.09 15.405 25.09 15.405 25.155L15.47 39.52C15.47 39.715 15.535 39.975 15.73 40.105C15.86 40.235 16.12 40.365 16.315 40.365H21.32V31.33C21.32 30.55 21.97 29.9 22.75 29.9H29.25C30.03 29.9 30.68 30.55 30.68 31.33V40.3H35.75C36.205 40.3 36.595 39.91 36.595 39.455L36.53 25.09C36.53 25.025 36.53 25.025 36.53 24.96C36.53 24.895 36.53 24.83 36.53 24.83C36.53 24.765 36.595 24.7 36.595 24.635V24.57C36.79 24.05 37.31 23.725 37.83 23.66H37.895H38.155L36.985 22.36C36.985 22.425 36.985 22.425 36.985 22.36Z" fill="black"/>
<path d="M24.245 40.3H27.755V32.76H24.245V40.3Z" fill="black"/>
<path d="M26 0C11.635 0 0 11.635 0 26C0 40.365 11.635 52 26 52C40.365 52 52 40.365 52 26C52 11.635 40.365 0 26 0ZM43.29 25.545C43.095 26.13 42.51 26.455 41.925 26.455H39.455L39.52 39.39C39.52 41.47 37.83 43.16 35.815 43.16H29.64C29.51 43.16 29.445 43.225 29.315 43.225H22.88C22.815 43.225 22.75 43.225 22.685 43.225H16.445C15.47 43.225 14.495 42.835 13.78 42.12C13.065 41.405 12.675 40.495 12.675 39.455L12.61 26.52H10.14C9.555 26.52 9.035 26.13 8.775 25.61C8.58 25.025 8.71 24.44 9.1 24.05L24.96 9.165C25.545 8.645 26.39 8.645 26.91 9.165L38.935 20.28C38.935 20.28 38.935 20.28 39 20.345L42.9 23.92C43.355 24.375 43.485 24.96 43.29 25.545Z" fill="black"/>
</svg>
