<?xml version="1.0" standalone="no"?>
<!DOCTYPE svg PUBLIC "-//W3C//DTD SVG 20010904//EN"
 "http://www.w3.org/TR/2001/REC-SVG-20010904/DTD/svg10.dtd">
<svg version="1.0" xmlns="http://www.w3.org/2000/svg"
 width="141.000000pt" height="127.000000pt" viewBox="0 0 141.000000 127.000000"
 preserveAspectRatio="xMidYMid meet">

<g transform="translate(0.000000,127.000000) scale(0.100000,-0.100000)"
fill="#000000" stroke="none">
<path d="M0 635 l0 -635 705 0 705 0 0 635 0 635 -705 0 -705 0 0 -635z m988
502 c6 -7 12 -51 14 -97 l3 -85 78 -6 c43 -4 80 -8 82 -10 2 -2 1 -16 -2 -30
-6 -35 -30 -39 -202 -38 -147 1 -185 7 -188 29 -6 33 15 44 86 48 l71 4 0 81
c0 61 4 85 17 99 19 21 27 22 41 5z m104 -324 l38 -5 -3 -329 c-1 -225 -6
-332 -13 -339 -10 -10 -250 -18 -259 -8 -3 2 2 26 10 53 8 26 15 59 15 73 0
14 7 33 15 42 27 30 30 85 6 125 -11 20 -21 48 -21 62 0 34 -38 160 -50 168
-6 3 -10 26 -10 50 0 24 -4 46 -9 49 -19 12 13 55 44 59 47 5 196 5 237 0z
m-414 -123 c17 -11 33 -28 33 -37 5 -68 4 -90 -4 -100 -6 -8 -5 -19 3 -29 11
-13 10 -19 -9 -37 -20 -21 -32 -22 -189 -25 -92 -2 -185 1 -207 5 l-40 9 0 56
c0 31 -3 54 -7 52 -4 -2 -3 10 3 28 11 41 11 41 -2 32 -7 -4 -7 1 1 16 21 40
64 49 230 50 137 0 159 -2 188 -20z m34 -286 c32 -6 36 -10 35 -32 -4 -48 -30
-53 -276 -50 -169 2 -225 6 -229 16 -2 6 -7 10 -11 8 -4 -3 -5 8 -3 24 3 20
11 30 26 33 34 7 418 7 458 1z m-34 -143 l39 -11 -3 -56 c-2 -31 -5 -58 -6
-59 -10 -9 -241 -15 -335 -9 l-113 7 0 58 c0 44 4 60 17 67 23 13 354 15 401
3z"/>
<path d="M401 636 c-14 -17 -7 -36 14 -36 22 0 29 20 13 36 -13 13 -16 13 -27
0z"/>
<path d="M539 634 c-9 -11 -9 -18 -1 -26 14 -14 42 -3 42 16 0 20 -27 27 -41
10z"/>
<path d="M327 573 c-15 -14 -7 -43 12 -43 26 0 36 17 21 35 -14 16 -23 19 -33
8z"/>
<path d="M612 568 c-8 -8 -9 -15 -1 -25 15 -18 36 -16 43 3 12 31 -18 46 -42
22z"/>
<path d="M467 564 c-9 -9 4 -34 18 -34 14 0 27 25 18 34 -4 3 -12 6 -18 6 -6
0 -14 -3 -18 -6z"/>
</g>
</svg>
