<?xml version="1.0" standalone="no"?>
<!DOCTYPE svg PUBLIC "-//W3C//DTD SVG 20010904//EN"
 "http://www.w3.org/TR/2001/REC-SVG-20010904/DTD/svg10.dtd">
<svg version="1.0" xmlns="http://www.w3.org/2000/svg"
 width="120.000000pt" height="140.000000pt" viewBox="0 0 120.000000 140.000000"
 preserveAspectRatio="xMidYMid meet">

<g transform="translate(0.000000,140.000000) scale(0.100000,-0.100000)"
fill="#000000" stroke="none">
<path d="M0 716 l0 -685 22 -15 c20 -14 92 -16 584 -16 531 0 562 1 577 18 16
17 17 80 17 700 l0 682 -600 0 -600 0 0 -684z m811 452 c0 -13 1 -41 2 -63 l2
-40 55 -5 c48 -4 55 -7 52 -25 -2 -11 -6 -22 -9 -25 -8 -9 -202 -10 -226 -1
-13 5 -22 17 -23 30 -1 19 4 21 52 21 l54 0 0 58 c0 32 3 62 7 65 14 15 33 6
34 -15z m86 -426 l-2 -227 -94 -3 c-87 -3 -93 -1 -86 15 4 10 10 32 12 48 3
17 12 45 21 63 16 31 16 35 -1 63 -9 17 -17 41 -17 54 0 14 -9 48 -19 77 -19
50 -25 82 -22 120 1 19 60 26 158 20 l53 -4 -3 -226z m-294 145 c18 -13 30
-84 15 -93 -5 -3 -5 -11 -1 -17 13 -21 11 -34 -6 -36 -32 -6 -280 -6 -285 0
-3 3 -7 34 -8 68 -3 87 4 91 152 91 77 0 122 -4 133 -13z m42 -219 l2 -26
-172 -2 c-94 0 -173 2 -177 5 -3 3 -3 17 0 30 l4 25 171 -2 171 -3 1 -27z
m-44 -67 c19 -7 24 -15 23 -37 -1 -16 -3 -35 -3 -41 -1 -10 -38 -13 -151 -13
l-150 0 0 44 c0 26 5 46 13 49 24 9 244 8 268 -2z m-296 -234 c26 -48 35 -47
35 3 0 37 2 40 28 40 35 0 48 -10 49 -35 0 -11 3 -28 8 -37 5 -14 2 -18 -14
-18 -12 0 -21 6 -21 14 0 8 -5 18 -12 22 -8 5 -9 0 -6 -14 6 -20 2 -22 -44
-22 -28 0 -47 4 -43 9 3 5 1 12 -5 16 -6 4 -8 10 -5 15 3 5 1 11 -5 15 -14 9
-12 37 3 33 6 -3 21 -21 32 -41z m250 -2 c0 -40 0 -40 -40 -43 l-40 -3 0 46 0
46 40 -3 c40 -3 40 -3 40 -43z m55 10 c0 -26 4 -35 16 -35 13 0 15 8 12 35
l-4 36 60 -3 c57 -3 61 -5 62 -28 1 -14 5 -33 9 -42 5 -14 2 -18 -14 -18 -12
0 -21 6 -21 15 0 8 -4 15 -10 15 -5 0 -7 -7 -4 -15 5 -11 -1 -15 -18 -15 -22
0 -23 3 -20 43 5 49 -14 41 -20 -8 -2 -24 -8 -31 -31 -33 -38 -5 -57 14 -57
54 0 27 4 34 20 34 16 0 20 -7 20 -35z m250 20 c0 -12 -7 -14 -26 -9 -23 6
-25 4 -22 -16 1 -13 9 -25 17 -28 8 -3 11 0 7 6 -3 5 1 12 9 16 20 7 29 -12
15 -29 -15 -18 -52 -19 -68 -3 -15 15 -15 51 0 66 18 18 68 15 68 -3z m58 -9
c-9 -16 -8 -18 6 -13 10 4 16 1 16 -8 0 -8 -3 -14 -7 -12 -5 1 -8 -2 -8 -8 0
-5 8 -10 17 -9 9 0 15 -3 12 -8 -3 -4 -20 -8 -37 -8 -31 0 -32 1 -32 45 0 39
2 44 22 43 18 -2 20 -5 11 -22z m-654 -31 c3 -9 0 -15 -9 -15 -9 0 -12 6 -9
15 4 8 7 15 9 15 2 0 5 -7 9 -15z m364 -73 c3 -9 -4 -11 -22 -6 -16 4 -26 2
-26 -5 0 -6 7 -8 15 -5 10 4 15 0 15 -15 0 -15 -4 -19 -17 -14 -15 5 -16 3 -6
-7 10 -10 15 -11 27 -1 11 9 15 9 19 -1 2 -7 13 4 23 26 10 21 24 39 29 39 6
0 19 -16 30 -36 25 -47 38 -47 33 -2 l-4 35 50 0 c46 0 48 -1 30 -14 -19 -15
-19 -15 4 -38 16 -17 22 -19 24 -8 0 8 2 20 3 25 2 6 3 16 4 23 1 14 61 17 61
2 0 -5 -7 -7 -15 -4 -8 4 -15 1 -15 -5 0 -6 6 -11 14 -11 15 0 29 -27 21 -40
-7 -12 -125 -11 -125 1 0 5 -4 9 -10 9 -5 0 -9 -5 -7 -11 3 -18 -80 -20 -94
-3 -10 12 -14 12 -20 2 -5 -8 -31 -14 -64 -15 l-55 -1 0 41 c0 28 -3 37 -9 28
-5 -7 -14 -10 -21 -6 -8 5 -11 -2 -8 -26 2 -28 0 -34 -17 -34 -17 0 -19 6 -17
34 2 20 0 31 -6 27 -6 -3 -22 -2 -36 4 -14 5 -26 6 -26 1 0 -5 9 -11 20 -14
25 -6 26 -33 2 -46 -25 -13 -62 -3 -62 17 0 12 3 13 12 4 7 -7 17 -12 22 -12
6 0 0 9 -13 19 -42 32 -22 50 54 50 37 0 68 1 70 3 10 10 109 0 113 -10z
m-382 -7 c-3 -8 -1 -15 3 -15 5 0 7 -9 4 -20 -4 -15 0 -20 15 -20 25 0 39 17
18 22 -12 2 -11 7 4 26 11 13 24 21 30 17 8 -5 7 -11 -1 -21 -6 -8 -9 -17 -6
-21 13 -12 -16 -33 -44 -33 -20 0 -29 5 -29 16 0 9 -5 12 -12 8 -10 -6 -10 -5
-1 8 7 8 10 18 7 21 -3 3 -3 10 1 16 9 16 18 13 11 -4z"/>
<path d="M416 853 c-11 -11 -6 -23 9 -23 8 0 15 4 15 9 0 13 -16 22 -24 14z"/>
<path d="M506 853 c-11 -11 -6 -23 9 -23 8 0 15 4 15 9 0 13 -16 22 -24 14z"/>
<path d="M360 795 c0 -8 7 -15 15 -15 8 0 15 7 15 15 0 8 -7 15 -15 15 -8 0
-15 -7 -15 -15z"/>
<path d="M460 795 c0 -8 5 -15 10 -15 6 0 10 7 10 15 0 8 -4 15 -10 15 -5 0
-10 -7 -10 -15z"/>
<path d="M552 798 c6 -18 28 -21 28 -4 0 9 -7 16 -16 16 -9 0 -14 -5 -12 -12z"/>
<path d="M370 379 c0 -5 5 -7 10 -4 6 3 10 8 10 11 0 2 -4 4 -10 4 -5 0 -10
-5 -10 -11z"/>
<path d="M510 350 c0 -5 5 -10 11 -10 5 0 7 5 4 10 -3 6 -8 10 -11 10 -2 0 -4
-4 -4 -10z"/>
<path d="M710 379 c0 -5 5 -7 10 -4 6 3 10 8 10 11 0 2 -4 4 -10 4 -5 0 -10
-5 -10 -11z"/>
<path d="M865 230 c3 -5 14 -10 23 -10 15 0 15 2 2 10 -20 13 -33 13 -25 0z"/>
</g>
</svg>
