<svg width="50" height="50" viewBox="0 0 50 50" fill="none" xmlns="http://www.w3.org/2000/svg">
<path d="M25 0C20.0555 0 15.222 1.46622 11.1108 4.21326C6.99953 6.96029 3.79521 10.8648 1.90302 15.4329C0.0108321 20.0011 -0.484251 25.0277 0.480379 29.8773C1.44501 34.7268 3.82603 39.1814 7.32234 42.6777C10.8187 46.174 15.2732 48.555 20.1227 49.5196C24.9723 50.4843 29.9989 49.9892 34.5671 48.097C39.1352 46.2048 43.0397 43.0005 45.7867 38.8892C48.5338 34.778 50 29.9445 50 25C50 18.3696 47.3661 12.0107 42.6777 7.32233C37.9893 2.63392 31.6304 0 25 0V0ZM36.8588 32.1294C36.19 33.2747 35.3144 34.286 34.2765 35.1118C33.4438 35.8474 32.4476 36.3738 31.3706 36.6471C30.0813 36.8891 28.7501 36.7711 27.5235 36.3059C25.3665 35.5919 23.4064 34.3833 21.8 32.7765C20.5118 31.6 18.8941 29.7882 18.8941 29.7882C17.4142 28.2542 16.1461 26.5291 15.1235 24.6588C14.3473 23.2602 13.7541 21.7676 13.3588 20.2176C13.0041 18.94 12.8884 17.6079 13.0177 16.2882C13.089 15.739 13.203 15.1962 13.3588 14.6647C14.0059 12.5529 15.8706 10.8471 17.1647 9.87059C17.3214 9.75227 17.5001 9.66626 17.6903 9.61756C17.8805 9.56886 18.0785 9.55843 18.2728 9.58689C18.4671 9.61535 18.6538 9.68212 18.822 9.78333C18.9903 9.88454 19.1368 10.0182 19.2529 10.1765L22.4765 14.5588C22.622 14.7628 22.7139 15 22.7437 15.2488C22.7735 15.4975 22.7403 15.7498 22.6471 15.9823C22.2479 17.1566 21.5554 18.2095 20.6353 19.0412C20.4043 19.2403 20.1628 19.4268 19.9118 19.6V19.6L19.8529 19.6471C19.5765 19.8588 18.5471 20.8235 19.8529 22.5882C21.5496 24.9255 23.4174 27.1336 25.4412 29.1941V29.1941C25.8765 29.5941 27.0647 30.4647 28.1177 29.0235C28.5529 28.3235 30.0765 25.5647 31.1588 26.1412C31.4177 26.2823 34.7882 28.8765 36.4529 30.2588C36.7317 30.4716 36.9257 30.7767 37.0001 31.1194C37.0744 31.4622 37.0244 31.8202 36.8588 32.1294V32.1294Z" fill="black"/>
</svg>
