<?xml version="1.0" encoding="UTF-8" standalone="no"?>
<!-- Created with Inkscape (http://www.inkscape.org/) -->

<svg
   width="79.638mm"
   height="65.257mm"
   version="1.1"
   viewBox="0 0 79.638 65.257"
   id="svg1655"
   sodipodi:docname="logoArtisan.svg"
   inkscape:version="1.1 (c68e22c387, 2021-05-23)"
   xmlns:inkscape="http://www.inkscape.org/namespaces/inkscape"
   xmlns:sodipodi="http://sodipodi.sourceforge.net/DTD/sodipodi-0.dtd"
   xmlns="http://www.w3.org/2000/svg"
   xmlns:svg="http://www.w3.org/2000/svg">
  <defs
     id="defs1659" />
  <sodipodi:namedview
     id="namedview1657"
     pagecolor="#ffffff"
     bordercolor="#666666"
     borderopacity="1.0"
     inkscape:pageshadow="2"
     inkscape:pageopacity="0"
     inkscape:pagecheckerboard="true"
     inkscape:document-units="mm"
     showgrid="false"
     borderlayer="false"
     showborder="true"
     inkscape:zoom="1.1639823"
     inkscape:cx="183.42203"
     inkscape:cy="82.905041"
     inkscape:window-width="1920"
     inkscape:window-height="1001"
     inkscape:window-x="-9"
     inkscape:window-y="-9"
     inkscape:window-maximized="1"
     inkscape:current-layer="svg1655" />
  <g
     transform="translate(-64.361 -127.78)"
     id="g1653"
     style="fill:#ffffff">
    <path
       d="m82.558 192.8c-1.1455-0.31922-1.2642-0.52812-0.79659-1.4019 0.24237-0.45286 0.44028-0.49646 1.2281-0.2705 1.0807 0.30993 2.6669 0.0851 3.1025-0.4397 0.16393-0.19753 0.38462-0.79194 0.49041-1.3209l0.19236-0.96175-0.68925 0.48277c-0.38865 0.27221-1.2419 0.48277-1.9564 0.48277-3.2776 0-4.7268-4.6456-2.2286-7.1439 0.79604-0.79603 1.1793-0.96138 2.2286-0.96138 0.69694 0 1.5567 0.20278 1.9105 0.45062 0.58229 0.40785 0.64336 0.40785 0.64336 0 0-0.32367 0.29105-0.45062 1.0331-0.45062h1.0331l-0.0923 4.6115c-0.0828 4.1406-0.15406 4.6948-0.69727 5.4276-1.1052 1.4911-3.2682 2.0899-5.4016 1.4954zm3.583-5.6447c0.62596-0.75423 0.51643-3.244-0.16462-3.742-1.2395-0.90633-2.8538-0.30626-3.2322 1.2015-0.22336 0.89 0.0443 1.9781 0.63101 2.5648 0.59849 0.59849 2.2611 0.58392 2.7658-0.0243zm-11.247 2.5222c-2.2594-0.55817-3.4258-2.282-3.1918-4.7173 0.1115-1.1603 0.33505-1.6316 1.1701-2.4666 0.86714-0.86715 1.2787-1.0525 2.5727-1.1586 1.2808-0.10503 1.6805-0.0157 2.3716 0.52966 0.91669 0.72353 1.6294 2.1668 1.6294 3.2995v0.73298h-2.8947c-1.6229 0-2.8947 0.1201-2.8947 0.27334 0 0.15032 0.30164 0.62401 0.67032 1.0526 0.5283 0.61419 0.92592 0.7793 1.8767 0.7793 0.66352 0 1.4189-0.17637 1.6786-0.39194 0.40736-0.33807 0.5491-0.297 1.0316 0.29891l0.5594 0.69083-0.80969 0.5073c-1.0163 0.63675-2.5566 0.86968-3.7695 0.57003zm2.5256-5.5172c0-0.47758-1.1206-1.4474-1.6724-1.4474-0.70022 0-1.8012 0.80629-1.8012 1.319 0 0.31766 0.4163 0.4178 1.7368 0.4178 0.96491 0 1.7368-0.12866 1.7368-0.28948zm16.355 5.5235c-2.1877-0.53509-3.3261-1.931-3.3279-4.0806-2e-3 -2.7083 1.8357-4.4782 4.4163-4.2529 0.79901 0.0698 1.6367 0.3509 1.9939 0.66912 0.74354 0.66245 1.4045 2.1424 1.4045 3.1448v0.73298h-2.8947c-3.1395 0-3.4859 0.21287-2.2434 1.3786 0.90863 0.85248 2.0274 0.98496 3.213 0.3805 1.0012-0.51047 1.0054-0.50986 1.3237 0.18875 0.17564 0.38546 0.23989 0.82937 0.14279 0.98647-0.40992 0.66328-2.7643 1.1615-4.0282 0.85234zm2.1152-5.9646c-0.59275-1.3009-2.3998-1.2096-3.1319 0.15832-0.29054 0.54287-0.20931 0.57231 1.5793 0.57231h1.8856zm26.253 5.9602c-1.9404-0.80503-2.2356-3.3957-0.50361-4.4189 0.45257-0.26732 1.5-0.57588 2.3277-0.68569 1.5458-0.20506 1.882-0.6096 1.0679-1.2852-0.42266-0.35077-2.0416-0.2821-3.0575 0.12969-0.30599 0.12404-0.55846-0.0426-0.77089-0.50881-0.28715-0.63024-0.22517-0.73651 0.68195-1.1691 1.8746-0.89394 4.5826-0.4068 5.3117 0.95552 0.16392 0.3063 0.29805 1.9984 0.29805 3.7602v3.2032h-0.86842c-0.69865 0-0.86842-0.12305-0.86842-0.6294v-0.62941l-0.65132 0.59815c-0.765 0.70256-2.1483 1.0194-2.9671 0.67972zm2.75-2.0454c0.82971-0.82972 0.76396-1.7368-0.12589-1.7368-1.2885 0-2.1899 0.51337-2.1899 1.2472 0 0.37543 0.0869 0.76944 0.19298 0.87559 0.38972 0.38972 1.5599 0.17696 2.1228-0.38597zm-56.737 1.4474c-0.46425-0.46426-0.57921-0.96606-0.58027-2.5329-7.1e-4 -1.0747-0.0858-3.4194-0.18895-5.2105l-0.18766-3.2566h2.4042v4.8034c0 4.56 0.0293 4.8111 0.57895 4.9548 0.41008 0.10723 0.57894 0.39486 0.57894 0.98606 0 0.76092-0.0895 0.83466-1.0132 0.83466-0.62719 0-1.2337-0.22054-1.5921-0.57894zm31.842-3.6368v-4.2157l0.94078 0.0907c0.85464 0.0824 0.93162 0.16859 0.84058 0.94119l-0.10022 0.85049 1.0511-0.92285c1.4426-1.2666 2.1888-1.2358 2.1888 0.0903 0 0.83267-0.10711 1.0132-0.60122 1.0132-0.33067 0-0.98199 0.38077-1.4474 0.84616-0.79555 0.79553-0.84616 0.986-0.84616 3.1842v2.3381h-2.0263zm6.3684 0v-4.2157l0.94079 0.0907c0.80367 0.0775 0.92678 0.19042 0.84466 0.77488l-0.0962 0.68416 0.99186-0.75654c1.2509-0.95412 2.5133-0.97623 3.5986-0.063l0.82419 0.69352 0.80627-0.69352c1.115-0.95912 2.8582-0.95137 3.8266 0.0171 0.67574 0.67573 0.71053 0.88125 0.71053 4.1974v3.4868h-2.0263v-3.004c0-2.397-0.0933-3.0815-0.46183-3.3873-0.38494-0.31948-0.58906-0.31188-1.2261 0.0456-1.1341 0.63658-1.4873 1.6076-1.492 4.1023l-4e-3 2.2434h-2.0263v-3.0293c0-2.7033-0.0605-3.0617-0.56241-3.3303-0.74669-0.39961-1.8745 0.1151-2.3004 1.0498-0.17675 0.38797-0.32138 1.7414-0.32138 3.0076v2.3022h-2.0263zm23.447 0.0184v-4.1974h2.0263v8.3947h-2.0263zm4.3421 0v-4.1974h0.86842c0.73051 0 0.86842 0.11354 0.86842 0.71495v0.71497l1.0536-0.71497c1.255-0.85168 2.9429-0.94304 3.8497-0.20837 0.81648 0.66145 1.1603 2.2367 1.1688 5.3553l7e-3 2.5329h-2.2493l0.0392-2.9169c0.0346-2.5792-0.026-2.9646-0.52278-3.329-0.81902-0.60064-1.2628-0.51348-2.2104 0.43407-0.80368 0.80369-0.84615 0.97078-0.84615 3.329v2.4828h-2.0263v-4.1974zm-4.3421-6.3684c0-0.96491 0.0483-1.0132 1.0132-1.0132 0.96492 0 1.0132 0.0482 1.0132 1.0132 0 0.96491-0.0482 1.0132-1.0132 1.0132-0.96491 0-1.0132-0.0483-1.0132-1.0132zm-65.328-3.992c-0.24465-0.3959-0.0961-36.502 0.15129-36.75 0.12947-0.12948 3.1561-1.0199 6.7259-1.9787 14.888-3.9986 26.066-7.0318 28.823-7.8207 3.5699-1.0216 3.7982-1.0258 6.4669-0.11811 1.1686 0.39746 9.9516 2.82 19.518 5.3833 9.5662 2.5634 17.491 4.7209 17.61 4.7944 0.11941 0.0735 0.21711 8.3317 0.21711 18.351v18.218l-39.686 0.0744c-21.827 0.0409-39.749-0.0286-39.827-0.15437zm76.837-18.376 0.0748-15.71-0.67474-0.25654c-1.3894-0.52824-36.601-9.8626-37.205-9.8626-0.34608 0-3.2662 0.71558-6.4892 1.5902-3.223 0.8746-11.071 2.9741-17.439 4.6656-6.3684 1.6915-11.807 3.195-12.086 3.3411-0.47298 0.24797-0.50658 1.3082-0.50658 15.983 0 8.6448 0.0873 15.805 0.19408 15.912 0.10678 0.10678 16.813 0.16101 37.125 0.12061l36.931-0.0735zm-21.099 6.7177c-4.472-1.377-7.1433-5.4826-6.8511-10.53 0.21576-3.7271 2.063-6.5157 5.5244-8.3399 1.3543-0.71372 1.806-0.79531 4.4038-0.79551 3.124-2.4e-4 4.6583 0.42228 6.437 1.7727l0.93704 0.71139-0.78026 1.2184c-0.42915 0.67012-0.79604 1.2505-0.81531 1.2896-0.0193 0.0392-0.77941-0.3319-1.6892-0.82465-2.3679-1.2825-4.5197-1.4374-6.6186-0.47653-1.6177 0.7406-2.8102 1.9814-3.4032 3.541-0.4821 1.268-0.39901 4.2105 0.15819 5.6031 0.89391 2.2341 3.6959 4.099 6.1588 4.099 1.1819 0 3.7403-0.97888 4.8126-1.8414l0.8551-0.68776 0.83026 1.1461c0.45663 0.63037 0.75967 1.3301 0.67341 1.5548-0.2379 0.61996-2.7446 2.1108-4.3519 2.5883-1.7747 0.52723-4.5159 0.51461-6.2811-0.0289zm-42.962-1.7904c1.0645-3.0762 5.8737-16.66 6.1023-17.236 0.17384-0.43806 0.50019-0.50577 2.0928-0.43421l1.8869 0.0848 3.4321 9.6974c1.8876 5.3336 3.4323 9.7299 3.4327 9.7697 2.8e-4 0.0398-0.83807 0.0723-1.8631 0.0723h-1.8636l-0.8013-2.4605-0.80131-2.4605h-6.9982l-0.80131 2.4605-0.8013 2.4605h-3.6928zm10.487-6.5521c-0.0846-0.22044-0.64447-2.0324-1.2442-4.0265l-1.0904-3.6256-1.2379 3.9541c-0.68087 2.1747-1.2422 3.9866-1.2473 4.0264-5e-3 0.0398 1.1118 0.0723 2.4822 0.0723 2.0034 0 2.4614-0.0786 2.3377-0.40079zm9.0655-1.3112v-9.867l4.125 1e-3c2.2688 8.3e-4 4.6094 0.13616 5.2016 0.3006 3.6589 1.0162 4.9213 5.4429 2.3275 8.1619-0.4161 0.43616-0.70089 0.83657-0.6329 0.88978 0.068 0.0532 0.53684 0.38189 1.0419 0.73037 0.54836 0.37837 1.1176 1.1555 1.413 1.9292 1.0267 2.6883-0.1011 5.5729-2.674 6.8397-1.2602 0.62047-1.8458 0.69572-6.098 0.78366l-4.7039 0.0973v-9.867zm9.4211 5.9225c0.54803-0.54802 0.71052-1.0144 0.71052-2.0395s-0.16249-1.4914-0.71052-2.0395c-0.64966-0.64966-0.93486-0.71054-3.329-0.71054h-2.6184v5.5h2.6184c2.3941 0 2.6793-0.0608 3.329-0.71054zm-0.67723-8.4836c0.45322-0.45322 0.65092-0.99511 0.65092-1.7842 0-2.0395-1.4773-2.8524-4.4639-2.4562l-1.4572 0.19331v4.9078l2.3096-0.10492c1.9252-0.0874 2.4179-0.2132 2.9605-0.7558z"
       stroke-width=".28947"
       id="path1651"
       style="fill-opacity:1;fill-rule:evenodd;fill:#ffffff" />
  </g>
</svg>
