<svg width="50" height="50" viewBox="0 0 50 50" fill="none" xmlns="http://www.w3.org/2000/svg">
<path d="M25 0C11.2198 0 0 11.2198 0 25C0 38.78 11.2198 50 25 50C38.7802 50 50 38.78 50 25C50 11.2198 38.7802 0 25 0ZM25 4.54545C36.3236 4.54545 45.4545 13.6764 45.4545 25C45.4545 36.3234 36.3236 45.4545 25 45.4545C13.6764 45.4545 4.54545 36.3234 4.54545 25C4.54545 13.6764 13.6764 4.54545 25 4.54545ZM25 8.33333C23.7448 8.33333 22.7273 9.3509 22.7273 10.6061V25C22.7273 25.6276 22.9789 26.1986 23.3902 26.6098L32.5047 35.7244C33.3923 36.612 34.8369 36.612 35.7244 35.7244C36.612 34.8369 36.612 33.3922 35.7244 32.5047L27.2727 24.0531V10.6061C27.2727 9.3509 26.2552 8.33333 25 8.33333Z" fill="black"/>
</svg>
